<svg viewBox="0 0 428 550" fill="none" xmlns="http://www.w3.org/2000/svg">
<path d="M34.0083 344.421L72.9971 322.004L72.9981 322.007C80.1062 318.241 89.2371 318.777 99.1994 324.528C121.865 337.614 140.239 372.721 140.239 402.942C140.239 419.557 134.678 431.219 125.91 436.193L125.916 436.207L88.4819 457.757L34.0083 344.421Z" fill="url(#paint0_linear_3_461)"/>
<path d="M188.267 433.767L227.256 411.349L227.257 411.353C234.365 407.586 243.496 408.123 253.458 413.874C276.123 426.96 294.498 462.067 294.498 492.288C294.498 508.902 288.937 520.565 280.169 525.539L280.175 525.552L242.741 547.102L188.267 433.767Z" fill="url(#paint1_linear_3_461)"/>
<path d="M0.232788 270.348V83.3314L300.398 96.2027V283.219C300.4 287.504 298.279 291.789 294.037 294.238L175.128 362.889C166.672 367.772 156.252 367.772 147.796 362.889L6.59324 281.366C2.3533 278.919 0.232788 274.633 0.232788 270.348Z" fill="url(#paint2_linear_3_461)"/>
<path d="M294.037 85.1855L152.834 3.66199C144.378 -1.22034 133.958 -1.22034 125.502 3.66199L6.59358 72.3131C-1.88845 77.2105 -1.88845 89.4523 6.59358 94.3497L147.796 175.873C156.253 180.756 166.673 180.756 175.129 175.873L294.037 107.222C302.519 102.325 302.519 90.0818 294.037 85.1855Z" fill="url(#paint3_linear_3_461)"/>
<path d="M248.254 58.7522L96.5956 146.312L56.3661 123.085L208.024 35.5255L248.254 58.7522Z" fill="#DEA861"/>
<path d="M224.209 44.8572L72.5513 132.418L80.4307 136.967L232.09 49.4076L224.209 44.8572Z" fill="#CC8241"/>
<path d="M419.336 361.03L390.584 240.491C387.139 226.049 377.903 213.66 365.045 206.237L303.248 170.514C299.546 168.376 295.32 169 292.378 171.319L184.355 233.686L162.694 246.192L288.061 521.289L415.208 447.882C416.096 447.517 416.932 447.035 417.691 446.447C420.102 444.583 421.733 441.673 421.733 438.193V381.409C421.733 374.546 420.928 367.706 419.336 361.03Z" fill="url(#paint4_linear_3_461)"/>
<path d="M307 438.998L325.11 428.542C326.189 427.919 327.538 428.698 327.538 429.944V445.841C327.538 447.996 326.388 449.988 324.521 451.065L306.411 461.521C305.331 462.144 303.983 461.365 303.983 460.119V444.222C303.984 442.067 305.134 440.076 307 438.998Z" fill="#E9E5F6"/>
<path d="M396.119 387.494L414.229 377.039C415.309 376.416 416.657 377.195 416.657 378.441V394.338C416.657 396.493 415.508 398.485 413.641 399.562L395.53 410.017C394.451 410.641 393.103 409.862 393.103 408.616V392.718C393.103 390.563 394.252 388.572 396.119 387.494Z" fill="#E9E5F6"/>
<path d="M158.862 350.061V253.917C158.862 246.449 166.946 241.781 173.414 245.516L235.211 281.238C248.069 288.662 257.305 301.05 260.75 315.492L289.502 436.031C291.094 442.707 291.898 449.547 291.898 456.41V513.194C291.898 521.248 283.18 526.281 276.205 522.255L12.4359 369.496C4.76382 365.067 0.0383301 356.881 0.0383301 348.022V288.008C0.0383301 283.161 5.28589 280.132 9.48286 282.555L142.284 359.609C149.643 363.879 158.862 358.569 158.862 350.061Z" fill="#06DAAE"/>
<path d="M174.826 365.925V267.39L224.698 296.229C229.63 299.076 233.107 303.9 234.25 309.479L255.339 412.455L174.826 365.925Z" fill="url(#paint5_linear_3_461)"/>
<path d="M386.609 250L275.853 313.945L298.616 412.454L409.373 348.509L386.609 250Z" fill="url(#paint6_linear_3_461)"/>
<path d="M174.568 466.661C174.568 436.44 192.942 422.549 215.607 435.635C238.273 448.722 256.647 483.828 256.647 514.049C256.647 544.27 238.272 558.161 215.607 545.075C192.941 531.989 174.568 496.882 174.568 466.661Z" fill="url(#paint7_linear_3_461)"/>
<path d="M231.155 526.223C242.431 521.419 244.687 501.366 236.195 481.435C227.702 461.503 211.676 449.24 200.401 454.045C189.125 458.85 186.868 478.902 195.361 498.833C203.853 518.765 219.879 531.028 231.155 526.223Z" fill="#E9E5F6"/>
<path d="M223.612 508.518C229.356 506.07 230.506 495.854 226.179 485.7C221.853 475.546 213.688 469.298 207.944 471.746C202.199 474.194 201.049 484.41 205.376 494.564C209.703 504.718 217.867 510.965 223.612 508.518Z" fill="#7662BD"/>
<path d="M20.3088 377.315C20.3088 347.094 38.6833 333.203 61.3483 346.289C84.0143 359.376 102.388 394.483 102.388 424.703C102.388 454.924 84.0132 468.815 61.3483 455.729C38.6823 442.644 20.3088 407.536 20.3088 377.315Z" fill="url(#paint8_linear_3_461)"/>
<path d="M76.8782 436.962C88.1542 432.158 90.4106 412.105 81.9181 392.174C73.4255 372.242 57.4 359.98 46.1241 364.784C34.8481 369.589 32.5917 389.641 41.0842 409.573C49.5768 429.504 65.6023 441.767 76.8782 436.962Z" fill="#E9E5F6"/>
<path d="M48.3309 393.494C48.3309 383.908 54.1586 379.502 61.3483 383.653C68.5381 387.804 74.3657 398.939 74.3657 408.525C74.3657 418.112 68.537 422.517 61.3483 418.366C54.1586 414.216 48.3309 403.08 48.3309 393.494Z" fill="#7662BD"/>
<path d="M421.372 432.506L288.158 505.444L263.606 493.644V522.201L284.669 534.362C288.387 536.508 292.968 536.508 296.686 534.362L425.399 460.049C427.075 459.082 427.911 457.389 427.911 455.696V427.139L421.372 432.506Z" fill="url(#paint9_linear_3_461)"/>
<path d="M269.304 490.355L291.898 503.399L421.733 428.439V420.67L425.399 422.787C428.749 424.721 428.749 429.557 425.399 431.491L296.686 505.803C292.968 507.95 288.387 507.95 284.669 505.803L263.606 493.643L269.304 490.355Z" fill="#A996EB"/>
<path d="M334.6 453.278L389.046 421.844V431.181C389.046 437.114 385.882 442.596 380.742 445.562L342.778 467.481C339.143 469.58 334.599 466.956 334.599 462.758V453.278H334.6Z" fill="url(#paint10_linear_3_461)"/>
<defs>
<linearGradient id="paint0_linear_3_461" x1="91.0493" y1="377.475" x2="74.1755" y2="348.248" gradientUnits="userSpaceOnUse">
<stop stop-color="#43386B"/>
<stop offset="1" stop-color="#7662BD"/>
</linearGradient>
<linearGradient id="paint1_linear_3_461" x1="245.308" y1="466.82" x2="228.434" y2="437.594" gradientUnits="userSpaceOnUse">
<stop stop-color="#43386B"/>
<stop offset="1" stop-color="#7662BD"/>
</linearGradient>
<linearGradient id="paint2_linear_3_461" x1="185.455" y1="224.942" x2="144.222" y2="224.942" gradientUnits="userSpaceOnUse">
<stop stop-color="#DEA861"/>
<stop offset="1" stop-color="#CC8241"/>
</linearGradient>
<linearGradient id="paint3_linear_3_461" x1="233.882" y1="41.5207" x2="79.4653" y2="130.673" gradientUnits="userSpaceOnUse">
<stop stop-color="#DEA861"/>
<stop offset="1" stop-color="#EBCBA0"/>
</linearGradient>
<linearGradient id="paint4_linear_3_461" x1="328.455" y1="359.818" x2="273.537" y2="264.696" gradientUnits="userSpaceOnUse">
<stop stop-color="#236568"/>
<stop offset="0.1516" stop-color="#276A6C"/>
<stop offset="0.3251" stop-color="#337878"/>
<stop offset="0.5094" stop-color="#478E8C"/>
<stop offset="0.7011" stop-color="#62AFA7"/>
<stop offset="0.8968" stop-color="#86D7CA"/>
<stop offset="1" stop-color="#9BF0DF"/>
</linearGradient>
<linearGradient id="paint5_linear_3_461" x1="215.083" y1="407.417" x2="215.083" y2="282.884" gradientUnits="userSpaceOnUse">
<stop stop-color="#43386B"/>
<stop offset="1" stop-color="#7662BD"/>
</linearGradient>
<linearGradient id="paint6_linear_3_461" x1="342.613" y1="406.813" x2="342.613" y2="267.351" gradientUnits="userSpaceOnUse">
<stop stop-color="#43386B"/>
<stop offset="1" stop-color="#7662BD"/>
</linearGradient>
<linearGradient id="paint7_linear_3_461" x1="215.607" y1="566.838" x2="215.607" y2="418.759" gradientUnits="userSpaceOnUse">
<stop stop-color="#43386B"/>
<stop offset="1" stop-color="#7662BD"/>
</linearGradient>
<linearGradient id="paint8_linear_3_461" x1="61.3483" y1="477.492" x2="61.3483" y2="329.415" gradientUnits="userSpaceOnUse">
<stop stop-color="#43386B"/>
<stop offset="1" stop-color="#7662BD"/>
</linearGradient>
<linearGradient id="paint9_linear_3_461" x1="286.644" y1="481.556" x2="306.461" y2="481.556" gradientUnits="userSpaceOnUse">
<stop stop-color="#43386B"/>
<stop offset="1" stop-color="#7662BD"/>
</linearGradient>
<linearGradient id="paint10_linear_3_461" x1="361.823" y1="466.609" x2="361.823" y2="426.797" gradientUnits="userSpaceOnUse">
<stop stop-color="#43386B"/>
<stop offset="1" stop-color="#594A8E"/>
</linearGradient>
</defs>
</svg>
